<svg xmlns="http://www.w3.org/2000/svg" viewBox="0 0 512 512" width="300" height="300" version="1.1" xmlns:xlink="http://www.w3.org/1999/xlink" xmlns:svgjs="http://svgjs.dev/svgjs"><g width="100%" height="100%" transform="matrix(-1,-1.2246467991473532e-16,-1.2246467991473532e-16,1,512,0)"><g id="Layer_2" data-name="Layer 2"><g id="Layer_1_copy_7" data-name="Layer 1 copy 7"><g id="_17" data-name="17"><path d="M361,512H151.05C67.76,512,0,444.24,0,361V151.05C0,67.76,67.76,0,151.05,0H361C444.24,0,512,67.76,512,151.05V361C512,444.24,444.24,512,361,512ZM151.05,41.36A109.82,109.82,0,0,0,41.36,151.05V361A109.82,109.82,0,0,0,151.05,470.64H361A109.82,109.82,0,0,0,470.64,361V151.05A109.82,109.82,0,0,0,361,41.36Z" fill="#ffffff" fill-opacity="1" data-original-color="#000000ff" stroke="none" stroke-opacity="1"/><path d="M304.54,328.08a21.13,21.13,0,0,0-21.13,21.13,30,30,0,0,1-30,30H162.26a30,30,0,0,1-30-30V162.8a30,30,0,0,1,30-30h91.16a30,30,0,0,1,30,30,21.13,21.13,0,0,0,42.26,0,72.33,72.33,0,0,0-72.25-72.26H162.26A72.33,72.33,0,0,0,90,162.8V349.21a72.33,72.33,0,0,0,72.26,72.25h91.16a72.33,72.33,0,0,0,72.25-72.25A21.13,21.13,0,0,0,304.54,328.08Z" fill="#ffffff" fill-opacity="1" data-original-color="#000000ff" stroke="none" stroke-opacity="1"/><path d="M417.2,269.62q.45-.56.87-1.14l.11-.15a21.36,21.36,0,0,0,1.55-2.59h0a19.58,19.58,0,0,0,1.2-2.89.42.42,0,0,0,0-.1,21.58,21.58,0,0,0,.71-2.85c0-.1,0-.2.05-.3.07-.45.13-.9.18-1.36v-.1c0-.42.07-.84.08-1.26,0-.13,0-.25,0-.38,0-.44,0-.89,0-1.33,0,0,0-.1,0-.15,0-.42-.06-.83-.11-1.24,0-.1,0-.2,0-.3-.06-.47-.13-.93-.22-1.39h0c-.1-.47-.21-.94-.34-1.41a1,1,0,0,0,0-.14,20.13,20.13,0,0,0-1-2.79l0-.08a20.54,20.54,0,0,0-1.39-2.62l-.09-.15a21,21,0,0,0-1.71-2.32,2.85,2.85,0,0,0-.23-.26c-.3-.35-.61-.69-.94-1l0,0-50.43-50.42a21.13,21.13,0,0,0-29.88,29.88l14.35,14.35H200.18a21.13,21.13,0,0,0,0,42.26H349.86L335.7,291.5a21.13,21.13,0,1,0,29.88,29.88l50.24-50.23.19-.21.27-.29c.27-.28.53-.58.78-.87Z" fill="#ffffff" fill-opacity="1" data-original-color="#000000ff" stroke="none" stroke-opacity="1"/></g></g></g></g></svg>