<svg xmlns="http://www.w3.org/2000/svg" id="Layer_1" data-name="Layer 1" viewBox="0 0 512 512" width="300" height="300" version="1.1" xmlns:xlink="http://www.w3.org/1999/xlink" xmlns:svgjs="http://svgjs.dev/svgjs"><g width="100%" height="100%" transform="matrix(1,0,0,1,0,0)"><path d="M256,381.214c105.1,0,190.607-85.506,190.607-190.607S361.1,0,256,0,65.393,85.506,65.393,190.607,150.9,381.214,256,381.214Zm-93.729-38.635a6.121,6.121,0,0,0,.053-.759V317.487a93.676,93.676,0,0,1,187.352,0V341.7a6.092,6.092,0,0,0,.07.871,178.236,178.236,0,0,1-187.475.01Zm42.406-186.951A51.323,51.323,0,1,1,256,206.95,51.382,51.382,0,0,1,204.677,155.628ZM256,12c98.484,0,178.607,80.123,178.607,178.607a178.463,178.463,0,0,1-72.931,143.9V317.487a105.859,105.859,0,0,0-82.239-103.052,63.323,63.323,0,1,0-46.874,0,105.859,105.859,0,0,0-82.239,103.052V334.5a178.463,178.463,0,0,1-72.931-143.9C77.393,92.123,157.516,12,256,12ZM126.969,402.305a54.848,54.848,0,0,0,0,109.7H385.03a54.848,54.848,0,1,0,0-109.695Zm300.909,54.848A42.9,42.9,0,0,1,385.03,500H126.969a42.848,42.848,0,0,1,0-85.695H385.03A42.9,42.9,0,0,1,427.878,457.153Zm-213.4-3.964-4.905,3.964,4.905,3.963a6,6,0,1,1-7.542,9.333l-.909-.734v2.54a6,6,0,0,1-12,0v-2.54l-.908.734a6,6,0,1,1-7.542-9.333l4.905-3.963-4.905-3.964a6,6,0,1,1,7.542-9.333l.908.735V442.05a6,6,0,0,1,12,0v2.54l.909-.734a6,6,0,0,1,7.542,9.333Zm-55.976,0-4.905,3.964,4.905,3.963a6,6,0,1,1-7.542,9.333l-.908-.733v2.539a6,6,0,0,1-12,0v-2.54l-.908.734a6,6,0,1,1-7.542-9.333l4.9-3.963-4.9-3.964a6,6,0,1,1,7.542-9.333l.908.734v-2.54a6,6,0,0,1,12,0v2.54l.908-.734a6,6,0,0,1,7.542,9.333Zm167.926,0-4.9,3.964,4.9,3.963a6,6,0,1,1-7.542,9.333l-.908-.734v2.54a6,6,0,0,1-12,0v-2.54l-.908.734a6,6,0,1,1-7.542-9.333l4.9-3.963-4.9-3.964a6,6,0,1,1,7.542-9.333l.908.734v-2.54a6,6,0,0,1,12,0v2.54l.908-.734a6,6,0,1,1,7.542,9.333Zm55.976,0-4.905,3.964,4.905,3.963a6,6,0,1,1-7.542,9.333l-.908-.734v2.54a6,6,0,0,1-12,0v-2.54l-.909.734a6,6,0,0,1-7.542-9.333l4.9-3.963-4.9-3.964a6,6,0,0,1,7.542-9.333l.909.734v-2.54a6,6,0,1,1,12,0v2.54l.908-.734a6,6,0,0,1,7.542,9.333Zm-111.951,0-4.9,3.964,4.9,3.963a6,6,0,1,1-7.542,9.333l-.908-.734v2.54a6,6,0,0,1-12,0v-2.54l-.909.734a6,6,0,0,1-7.542-9.333l4.905-3.963-4.905-3.964a6,6,0,0,1,7.542-9.333l.909.734v-2.54a6,6,0,1,1,12,0v2.54l.908-.734a6,6,0,0,1,7.542,9.333Z" fill="#ffffff" fill-opacity="1" data-original-color="#000000ff" stroke="none" stroke-opacity="1"/></g></svg>